HIERARCHY
ROOT Hips
{
	OFFSET -218.811600 91.910019 -434.508209
	CHANNELS 6 Xposition Yposition Zposition Zrotation Yrotation Xrotation 
	JOINT LeftUpLeg
	{
		OFFSET 0.103459 1.857842 10.548500
		CHANNELS 3 Zrotation Yrotation Xrotation
		JOINT LeftLeg
		{
			OFFSET 43.500008 -0.000042 -0.000011
			CHANNELS 3 Zrotation Yrotation Xrotation
			JOINT LeftFoot
			{
				OFFSET 42.372200 0.000000 0.000010
				CHANNELS 3 Zrotation Yrotation Xrotation
				JOINT LeftToe
				{
					OFFSET 17.300018 0.000008 -0.000006
					CHANNELS 3 Zrotation Yrotation Xrotation
					End Site
					{
						OFFSET 0.000000 0.000000 0.000000
					}
				}
			}
		}
	}
	JOINT RightUpLeg
	{
		OFFSET 0.103459 1.857820 -10.548510
		CHANNELS 3 Zrotation Yrotation Xrotation
		JOINT RightLeg
		{
			OFFSET 43.500038 -0.000004 -0.000004
			CHANNELS 3 Zrotation Yrotation Xrotation
			JOINT RightFoot
			{
				OFFSET 42.372261 -0.000019 0.000015
				CHANNELS 3 Zrotation Yrotation Xrotation
				JOINT RightToe
				{
					OFFSET 17.300003 -0.000001 0.000006
					CHANNELS 3 Zrotation Yrotation Xrotation
					End Site
					{
						OFFSET 0.000000 0.000000 0.000000
					}
				}
			}
		}
	}
	JOINT Spine
	{
		OFFSET 6.901967 -2.603730 -0.000004
		CHANNELS 3 Zrotation Yrotation Xrotation
		JOINT Spine1
		{
			OFFSET 12.588097 -0.000009 0.000008
			CHANNELS 3 Zrotation Yrotation Xrotation
			JOINT Spine2
			{
				OFFSET 12.343205 0.000003 -0.000002
				CHANNELS 3 Zrotation Yrotation Xrotation
				JOINT Neck
				{
					OFFSET 25.832899 -0.000006 0.000003
					CHANNELS 3 Zrotation Yrotation Xrotation
					JOINT Head
					{
						OFFSET 11.766611 0.000013 0.000001
						CHANNELS 3 Zrotation Yrotation Xrotation
						End Site
						{
							OFFSET 0.000000 0.000000 0.000000
						}
					}
				}
				JOINT LeftShoulder
				{
					OFFSET 19.745903 -1.480350 6.000102
					CHANNELS 3 Zrotation Yrotation Xrotation
					JOINT LeftArm
					{
						OFFSET 11.284125 -0.000002 -0.000024
						CHANNELS 3 Zrotation Yrotation Xrotation
						JOINT LeftForeArm
						{
							OFFSET 33.000050 0.000009 0.000033
							CHANNELS 3 Zrotation Yrotation Xrotation
							JOINT LeftHand
							{
								OFFSET 25.200012 0.000010 -0.000003
								CHANNELS 3 Zrotation Yrotation Xrotation
								End Site
								{
									OFFSET 0.000000 0.000000 0.000000
								}
							}
						}
					}
				}
				JOINT RightShoulder
				{
					OFFSET 19.746105 -1.480362 -6.000072
					CHANNELS 3 Zrotation Yrotation Xrotation
					JOINT RightArm
					{
						OFFSET 11.284140 -0.000003 -0.000004
						CHANNELS 3 Zrotation Yrotation Xrotation
						JOINT RightForeArm
						{
							OFFSET 33.000099 0.000013 0.000007
							CHANNELS 3 Zrotation Yrotation Xrotation
							JOINT RightHand
							{
								OFFSET 25.199776 0.000126 0.000428
								CHANNELS 3 Zrotation Yrotation Xrotation
								End Site
								{
									OFFSET 0.000000 0.000000 0.000000
								}
							}
						}
					}
				}
			}
		}
	}
}
MOTION
Frames: 12
Frame Time: 0.033333
298.831085 88.821968 -497.912994 94.759244 -0.469572 129.170297 -165.713544 1.401993 173.674034 -7.781074 -0.654825 -11.738483 80.439937 5.723038 -10.918894 21.454551 0.003091 -0.000000 151.345709 3.073105 -169.561222 -26.552347 5.544083 8.875188 69.907171 -6.496571 0.192223 21.454557 -0.003116 -0.000017 7.466163 -0.100597 -0.836903 4.920693 -0.165832 -1.677293 4.602744 -0.175822 -1.676257 1.645575 -6.682598 -13.475916 -14.439904 16.030794 -20.323855 -167.339184 -79.286250 -14.421960 -30.767062 48.580950 28.494344 -43.683650 -15.442767 1.587565 7.332818 4.014941 37.645711 -157.319324 68.465967 24.773402 9.701614 -50.192393 -44.454013 -52.053046 17.932829 -2.044483 -1.271738 6.096591 -18.475559 
301.754303 87.909508 -495.674805 94.805874 -0.262403 125.454101 -162.183457 3.070299 173.354969 -6.477469 -0.639216 -13.400934 81.721041 6.804700 -11.820323 21.454558 0.003095 -0.000001 151.646674 1.189411 -171.022254 -22.099497 5.693717 10.512355 71.313049 -7.863145 -0.471401 21.454558 -0.003113 -0.000016 7.267717 0.136312 -1.003702 4.519905 0.311310 -2.001367 4.202013 0.299356 -2.003207 1.723358 -4.954882 -12.449962 -14.465490 14.124126 -18.359052 -168.130297 -79.378102 -13.617411 -30.493796 50.878605 29.301423 -44.658031 -15.807301 1.639684 6.716055 4.078564 37.663804 -155.052001 67.683398 27.134474 8.203352 -50.581990 -42.404751 -52.738636 18.035241 -2.074826 -1.847611 5.431471 -20.905332 
304.743500 86.816994 -493.016907 95.004953 0.401974 122.038296 -158.745877 4.346605 171.515162 -6.625484 -0.872569 -13.679464 82.816624 6.900766 -12.817035 21.454553 0.003092 -0.000001 152.107684 -0.537696 -171.174444 -22.261965 5.257513 11.326386 73.138349 -8.476897 -0.769191 21.454558 -0.003103 -0.000019 7.107597 0.449935 -1.299133 4.191820 0.946092 -2.581375 3.874049 0.930621 -2.587027 2.118221 -3.050512 -11.335111 -14.099095 11.562387 -15.998825 -168.856319 -79.140125 -12.879444 -28.417719 53.895018 29.203198 -46.579547 -16.146178 1.719296 6.124120 4.454358 40.043674 -152.788313 66.469857 29.508323 6.611753 -50.480770 -40.630576 -53.855253 18.071116 -2.116015 -2.593026 4.981166 -23.045576 
307.664612 85.841301 -490.027008 95.023532 1.208820 118.992605 -155.315565 5.428405 169.452554 -6.787290 -0.956223 -13.504889 82.099454 6.425372 -14.243393 21.454557 0.003090 0.000000 152.348694 -1.951905 -171.270764 -26.416230 4.735159 10.867079 73.329198 -10.138278 -7.726322 21.454560 -0.003120 -0.000018 6.895190 0.835291 -1.658624 3.753230 1.723193 -3.289997 3.435536 1.703442 -3.300321 2.984049 -1.192283 -10.292412 -13.625359 8.831441 -13.685946 -167.722494 -78.588635 -14.033806 -25.189102 56.822492 29.724891 -49.760547 -15.886421 1.801630 5.628941 4.244901 43.525258 -150.431898 65.125690 31.990376 6.096415 -50.394488 -39.513532 -55.696771 18.230171 -2.192177 -3.270608 4.658458 -24.962388 
310.457397 85.004204 -486.747894 94.806154 2.446803 116.201216 -152.071430 6.221504 167.643592 -7.699895 -0.696515 -13.313446 79.935213 5.740483 -15.645938 21.454553 0.003089 -0.000000 152.029779 -3.448104 -173.612453 -33.045862 4.745284 11.277172 75.148863 -11.152205 -11.007387 21.454558 -0.003106 -0.000017 6.768518 1.336097 -1.924431 3.479818 2.728550 -3.809449 3.162086 2.705662 -3.825837 3.887355 0.409598 -9.505276 -13.393789 5.977667 -11.700483 -167.429698 -77.833393 -14.333937 -22.258398 59.140054 31.745749 -52.921187 -15.825564 1.902037 4.429890 3.421964 44.176929 -148.795603 63.868778 33.730261 7.159529 -50.313649 -38.069569 -58.051007 18.144512 -2.272460 -3.798741 4.314397 -26.779162 
313.140411 83.919952 -483.479492 95.035450 3.779060 113.760400 -151.144478 7.269107 165.295195 -13.374290 0.648013 -12.849033 77.928101 4.610540 -17.716735 21.454548 0.003096 0.000001 151.463119 -3.560193 -175.274662 -41.635430 5.439768 10.821093 80.018098 -10.073072 -10.137493 21.454558 -0.003108 -0.000019 6.840770 1.784590 -2.222727 3.600775 3.636475 -4.391773 3.283002 3.610052 -4.413621 4.215536 1.302304 -8.678899 -13.191551 3.839296 -10.022533 -167.215694 -77.499288 -14.553040 -20.726259 61.198317 33.296042 -55.334641 -15.706059 1.977322 2.502717 1.944304 43.619651 -148.927589 62.845636 33.627507 8.514945 -50.215059 -35.364923 -60.212475 17.972840 -2.342086 -4.008461 4.497173 -27.551385 
315.330414 83.254288 -480.346008 94.662440 5.369246 112.251297 -152.703140 6.128606 165.148619 -23.489377 0.694811 -13.261085 75.239486 3.955985 -19.627599 21.454560 0.003096 -0.000002 152.947948 -3.638109 -173.588465 -46.551216 5.112165 9.228534 84.216110 -8.477815 -9.879480 21.454562 -0.003101 -0.000016 7.040623 2.348476 -2.599501 3.964817 4.783502 -5.122291 3.646905 4.752661 -5.151030 4.726645 1.572271 -7.915313 -13.844263 2.484412 -8.793860 -170.772706 -77.638904 -10.926462 -19.673808 62.726818 33.752917 -57.624557 -15.381723 2.037092 1.628795 0.915032 43.533935 -148.625312 62.442027 33.956070 8.877947 -51.252807 -32.357430 -61.042002 17.963669 -2.373235 -3.996815 5.716031 -26.431177 
317.191589 82.988968 -477.413086 94.164212 6.637088 110.985110 -157.009301 4.085297 163.620282 -37.287973 1.325110 -12.950404 71.235615 3.290580 -18.765253 21.454551 0.003094 -0.000002 155.136614 -4.153792 -172.461594 -49.078393 4.306070 8.132898 87.343817 -7.303263 -9.327754 21.454560 -0.003101 -0.000017 7.257961 2.827625 -2.859075 4.367164 5.759993 -5.617296 4.048992 5.726142 -5.651924 5.741469 2.842058 -7.488134 -15.232461 0.362944 -7.535665 -175.747010 -78.204867 -5.861788 -20.649275 63.624640 33.129057 -59.219414 -15.369703 2.094614 1.387168 0.628543 44.217822 -149.806799 61.342872 32.761310 8.196856 -51.522081 -29.205452 -60.934822 18.224753 -2.387080 -3.642574 7.475716 -23.432340 
318.886688 83.124252 -474.694214 93.507721 7.749296 109.061599 -162.503724 1.753014 163.026452 -51.287320 1.518735 -12.167964 66.725853 3.219936 -15.276189 21.454553 0.003089 0.000000 157.814471 -5.210104 -174.085621 -49.726595 4.691405 7.943619 89.245089 -6.904024 -8.733305 21.454562 -0.003100 -0.000015 7.600421 3.261302 -2.862310 5.034044 6.642981 -5.590093 4.715289 6.609282 -5.630094 6.376339 3.796561 -6.986551 -16.281057 -1.094420 -6.419182 179.892484 -78.872183 -1.433087 -24.165201 64.001441 30.509741 -60.076069 -15.535673 2.137751 1.274877 0.780875 45.680421 -151.013311 60.908711 31.515497 6.080298 -51.853574 -25.854651 -59.968685 17.987520 -2.333803 -2.111233 9.942904 -18.066851 
320.485199 83.352821 -472.235901 92.871161 8.784725 106.879101 -168.421523 -0.760002 164.260749 -63.531312 0.415247 -8.798947 68.110189 1.884629 -12.507989 21.454553 0.003089 0.000004 160.611570 -6.054208 -175.332950 -49.781786 4.698421 7.379568 90.672599 -6.331841 -8.323530 21.454557 -0.003108 -0.000019 8.129050 3.582543 -2.756898 6.087148 7.304266 -5.332640 5.767751 7.272109 -5.376698 6.656725 4.588892 -6.437147 -17.748639 -1.796419 -5.502245 175.577376 -79.825596 2.932437 -28.786894 63.892472 26.148416 -60.799701 -15.750276 2.179568 2.219693 1.211579 46.922098 -153.794796 60.721720 28.614111 2.360396 -51.552250 -23.010675 -58.331503 18.246693 -2.289890 0.127198 11.832222 -12.694710 
322.031311 83.767387 -469.853607 92.501102 9.743529 104.524509 -174.416681 -2.977698 165.510797 -72.957110 -0.228046 -4.953666 69.776584 -0.002660 -10.312595 21.454548 0.003090 -0.000000 163.761927 -6.363397 -176.631369 -49.158391 4.714556 6.568753 91.727808 -5.666462 -8.123037 21.454560 -0.003095 -0.000017 8.798491 3.758627 -2.584503 7.435030 7.674894 -4.932978 7.115108 7.645132 -4.979339 6.672065 5.233910 -5.884789 -19.639504 -2.951282 -4.378501 170.799904 -80.654746 7.756513 -33.001886 63.372633 21.052103 -61.512950 -15.981733 2.222426 3.579177 2.219474 48.485358 -157.350688 60.625661 24.896924 -2.870208 -50.283791 -20.889538 -56.140617 18.785734 -2.245979 3.316434 11.941976 -7.237427 
323.426392 84.250023 -467.556488 91.957268 10.520995 101.955996 179.543298 -5.332003 166.311541 -79.233562 -0.113685 -2.491642 71.211354 -1.031183 -8.378205 21.454538 0.003091 0.000003 166.892653 -6.600205 -177.643303 -47.966455 4.523410 5.530214 92.425826 -4.909010 -8.154939 21.454555 -0.003105 -0.000018 9.467732 3.838172 -2.324226 8.793426 7.841391 -4.359513 8.473095 7.815079 -4.406942 7.456721 5.917302 -5.150933 -21.706184 -4.079764 -3.064525 164.519272 -81.042831 14.105769 -36.234123 62.459942 16.198282 -61.127775 -16.314703 2.230572 4.620944 2.786829 48.293331 -160.655598 60.544901 21.438876 -8.558515 -48.231155 -18.893340 -53.430364 18.435533 -2.125749 5.245383 9.626373 -4.485114 
